<?xml version="1.0" encoding="UTF-8" standalone="no"?>
<svg
   height="24px"
   viewBox="0 -960 960 960"
   width="24px"
   fill="#e8eaed"
   version="1.1"
   id="svg1"
   sodipodi:docname="hearing_24dp_E8EAED_FILL1_wght400_GRAD0_opsz24.svg"
   inkscape:version="1.3.2 (091e20ef0f, 2023-11-25, custom)"
   xmlns:inkscape="http://www.inkscape.org/namespaces/inkscape"
   xmlns:sodipodi="http://sodipodi.sourceforge.net/DTD/sodipodi-0.dtd"
   xmlns="http://www.w3.org/2000/svg"
   xmlns:svg="http://www.w3.org/2000/svg">
  <defs
     id="defs1" />
  <sodipodi:namedview
     id="namedview1"
     pagecolor="#ffffff"
     bordercolor="#000000"
     borderopacity="0.25"
     inkscape:showpageshadow="2"
     inkscape:pageopacity="0.0"
     inkscape:pagecheckerboard="0"
     inkscape:deskcolor="#d1d1d1"
     inkscape:zoom="33.541667"
     inkscape:cx="12"
     inkscape:cy="12"
     inkscape:window-width="1920"
     inkscape:window-height="1011"
     inkscape:window-x="0"
     inkscape:window-y="0"
     inkscape:window-maximized="1"
     inkscape:current-layer="svg1" />
  <rect
     style="fill:#f66151;stroke-width:28.9619;fill-opacity:1"
     id="rect1"
     width="960"
     height="960"
     x="0"
     y="-960" />
  <path
     d="M680-80q-62 0-101.5-31T518-202q-17-50-32.5-70T414-336q-62-50-98-113t-36-151q0-119 80.5-199.5T560-880q119 0 199.5 80.5T840-600h-80q0-85-57.5-142.5T560-800q-85 0-142.5 57.5T360-600q0 68 27 116t77 86q52 38 81 74t43 78q14 44 33.5 65t58.5 21q33 0 56.5-23.5T760-240h80q0 66-47 113T680-80ZM248-290q-59-60-93.5-139.5T120-600q0-92 34.5-172T248-912l58 56q-50 50-78 115.5T200-600q0 74 28 139t78 115l-58 56Zm312-210q-42 0-71-29.5T460-600q0-42 29-71t71-29q42 0 71 29t29 71q0 41-29 70.5T560-500Z"
     id="path1"
     style="stroke:none;stroke-opacity:1;fill:#1f2937;fill-opacity:1.0" />
</svg>
