<?xml version="1.0" encoding="UTF-8" standalone="no"?>
<svg
   height="24px"
   viewBox="0 -960 960 960"
   width="24px"
   fill="#e8eaed"
   version="1.1"
   id="svg1"
   sodipodi:docname="tap (Copy).svg"
   inkscape:version="1.3.2 (091e20ef0f, 2023-11-25, custom)"
   xmlns:inkscape="http://www.inkscape.org/namespaces/inkscape"
   xmlns:sodipodi="http://sodipodi.sourceforge.net/DTD/sodipodi-0.dtd"
   xmlns="http://www.w3.org/2000/svg"
   xmlns:svg="http://www.w3.org/2000/svg">
  <defs
     id="defs1" />
  <sodipodi:namedview
     id="namedview1"
     pagecolor="#ffffff"
     bordercolor="#000000"
     borderopacity="0.25"
     inkscape:showpageshadow="2"
     inkscape:pageopacity="0.0"
     inkscape:pagecheckerboard="0"
     inkscape:deskcolor="#d1d1d1"
     inkscape:zoom="33.416667"
     inkscape:cx="12"
     inkscape:cy="11.985037"
     inkscape:window-width="1920"
     inkscape:window-height="1011"
     inkscape:window-x="0"
     inkscape:window-y="0"
     inkscape:window-maximized="1"
     inkscape:current-layer="svg1" />
  <path
     d="M419-80q-28 0-52.5-12T325-126L107-403l19-20q20-21 48-25t52 11l74 45v-328q0-17 11.5-28.5T340-760q17 0 29 11.5t12 28.5v200h299q50 0 85 35t35 85v160q0 66-47 113T640-80H419ZM167-620q-13-22-20-47.5t-7-52.5q0-83 58.5-141.5T340-920q83 0 141.5 58.5T540-720q0 27-7 52.5T513-620l-69-40q8-14 12-28.5t4-31.5q0-50-35-85t-85-35q-50 0-85 35t-35 85q0 17 4 31.5t12 28.5l-69 40Z"
     id="path1"
     style="fill:#1a5fb4;stroke:none;fill-opacity:1" />
</svg>
